<?xml version="1.0" standalone="no"?>
<!DOCTYPE svg PUBLIC "-//W3C//DTD SVG 20010904//EN"
 "http://www.w3.org/TR/2001/REC-SVG-20010904/DTD/svg10.dtd">
<svg version="1.0" xmlns="http://www.w3.org/2000/svg"
 width="1069.000000pt" height="1069.000000pt" viewBox="0 0 1069.000000 1069.000000"
 preserveAspectRatio="xMidYMid meet">
<metadata>
Created by potrace 1.11, written by Peter Selinger 2001-2013
</metadata>
<g transform="translate(0.000000,1069.000000) scale(0.100000,-0.100000)"
fill="#000000" stroke="none">
<path d="M5095 10683 c-452 -23 -931 -108 -1346 -237 -573 -178 -1104 -448
-1589 -809 -74 -55 -137 -103 -140 -106 -3 -4 -36 -33 -75 -65 -243 -203 -498
-458 -727 -729 -138 -163 -219 -272 -341 -458 -480 -732 -759 -1522 -853
-2415 -23 -211 -26 -789 -6 -989 96 -946 376 -1738 887 -2505 403 -604 978
-1164 1586 -1544 735 -459 1481 -713 2359 -802 229 -24 751 -24 980 0 548 56
999 163 1480 353 947 373 1805 1046 2387 1873 564 801 883 1670 969 2642 20
227 20 678 0 905 -79 896 -366 1730 -844 2458 -106 163 -283 406 -324 447 -13
13 -52 57 -87 98 -292 345 -605 637 -950 884 -834 599 -1794 937 -2821 995
-99 6 -157 6 -161 0 -3 -6 -17 -8 -30 -5 -33 7 -280 13 -354 9z m580 -353
c1571 -104 2979 -922 3841 -2230 136 -206 208 -334 324 -575 271 -557 422
-1110 481 -1755 16 -174 16 -676 0 -850 -59 -651 -219 -1229 -495 -1786 -114
-231 -178 -343 -310 -544 -391 -593 -900 -1093 -1493 -1468 -805 -508 -1717
-771 -2680 -772 -643 0 -1264 117 -1863 353 -197 78 -572 266 -759 381 -594
367 -1122 871 -1510 1441 -466 687 -741 1436 -838 2287 -25 219 -25 847 0
1066 97 851 372 1600 838 2287 187 276 387 512 643 762 380 372 758 640 1241
883 602 303 1221 472 1900 519 164 12 510 12 680 1z"/>
<path d="M5090 9933 c-257 -15 -570 -62 -838 -128 -915 -226 -1731 -724 -2365
-1445 -616 -701 -996 -1561 -1112 -2520 -23 -186 -31 -609 -16 -807 88 -1148
564 -2168 1387 -2974 1142 -1116 2771 -1558 4311 -1168 1031 261 1936 869
2579 1734 395 532 678 1169 809 1820 99 494 116 976 54 1470 -211 1666 -1328
3096 -2899 3710 -602 235 -1278 344 -1910 308z m-2005 -1773 c262 -9 392 -26
590 -76 508 -127 990 -409 1400 -819 177 -176 232 -242 549 -658 142 -186 262
-335 266 -330 4 4 112 143 240 308 292 375 326 417 444 545 256 280 581 528
902 693 391 199 731 290 1167 313 l137 7 -2 -644 -3 -644 -125 -6 c-516 -26
-1056 -300 -1444 -735 -99 -111 -606 -759 -606 -774 0 -6 123 -172 273 -368
294 -386 441 -549 622 -695 204 -164 425 -289 645 -365 185 -63 315 -89 543
-107 l77 -7 0 -634 c0 -589 -1 -635 -17 -641 -27 -11 -336 15 -463 37 -601
108 -1146 403 -1615 875 -140 140 -242 264 -510 615 -137 179 -256 335 -265
347 -16 21 -21 15 -251 -280 -305 -393 -409 -516 -554 -662 -433 -433 -952
-732 -1475 -849 -281 -62 -260 -61 -1029 -58 -388 1 -707 4 -709 7 -3 3 7
1190 22 2637 14 1448 26 2711 26 2806 l0 172 458 0 c251 -1 570 -5 707 -10z"/>
<path d="M3210 6718 c0 -84 -7 -736 -15 -1448 -8 -712 -15 -1325 -15 -1363 l0
-67 43 6 c423 58 780 227 1133 534 138 121 242 240 542 624 230 295 263 342
253 358 -24 39 -507 667 -560 728 -310 360 -721 628 -1121 730 -74 19 -231 50
-252 50 -5 0 -8 -69 -8 -152z"/>
</g>
</svg>
